PathFileType	4	(X/Y/Z)	 s02c0302.trc
DataRate	CameraRate	NumFrames	NumMarkers	Units	OrigDataRate	OrigDataStartFrame	OrigNumFrames
200	200	5	51	mm	200	751	2000
Frame#	Time	racr			lacr			c7			jug			rlel			rdr			llel			ldr			s2			lic			ric			lasi			rasi			rpsi			lpsi			rgt			lgt			rth1			rth2			rth3			rth4			rlfc			rmfc			rsh1			rsh2			rsh3			rsh4			rlmal			rmmal			rcal			rtoe			rmt5			rmt1			lth1			lth2			lth4			lth3			llfc			lmfc			lsh1			lsh2			lsh3			lsh4			llmal			lmmal			lcal			ltoe			lmt5			SBIKE			LBIKE			RBIKE			
		X1	Y1	Z1	X2	Y2	Z2	X3	Y3	Z3	X4	Y4	Z4	X5	Y5	Z5	X6	Y6	Z6	X7	Y7	Z7	X8	Y8	Z8	X9	Y9	Z9	X10	Y10	Z10	X11	Y11	Z11	X12	Y12	Z12	X13	Y13	Z13	X14	Y14	Z14	X15	Y15	Z15	X16	Y16	Z16	X17	Y17	Z17	X18	Y18	Z18	X19	Y19	Z19	X20	Y20	Z20	X21	Y21	Z21	X22	Y22	Z22	X23	Y23	Z23	X24	Y24	Z24	X25	Y25	Z25	X26	Y26	Z26	X27	Y27	Z27	X28	Y28	Z28	X29	Y29	Z29	X30	Y30	Z30	X31	Y31	Z31	X32	Y32	Z32	X33	Y33	Z33	X34	Y34	Z34	X35	Y35	Z35	X36	Y36	Z36	X37	Y37	Z37	X38	Y38	Z38	X39	Y39	Z39	X40	Y40	Z40	X41	Y41	Z41	X42	Y42	Z42	X43	Y43	Z43	X44	Y44	Z44	X45	Y45	Z45	X46	Y46	Z46	X47	Y47	Z47	X48	Y48	Z48	X49	Y49	Z49	X50	Y50	Z50	X51	Y51	Z51	
751	3.7550	626.161303	1274.743206	-174.971006	560.875836	1278.478120	-507.101021	580.230399	1312.865009	-345.313725	525.992820	1181.328148	-327.393074	610.453442	1014.741525	-67.274210	732.626641	843.664062	-116.131253	502.490340	991.169157	-536.901179	706.032432	877.939391	-506.826602	47.737301	1166.090388	-272.425992	174.886530	1154.856545	-425.024271	184.511095	1132.814570	-139.248266	215.692891	1115.698826	-402.903884	227.762153	1099.754574	-170.782760	74.588704	1190.784903	-227.324614	75.674699	1205.634934	-311.391736	151.004416	1048.961664	-106.490250	117.732795	1075.817319	-460.358073	236.508362	995.981289	-118.549647	312.433049	951.868202	-128.505324	361.481913	883.770489	-110.117628	332.253420	972.413690	-152.694184	424.074255	755.923624	-146.130257	400.311256	746.611873	-254.238253	357.025541	664.008554	-133.052334	301.046148	597.273123	-152.542267	223.331687	560.173116	-144.577645	308.450890	592.015594	-190.959883	119.037931	495.227129	-146.146406	140.423260	507.617200	-228.731780	32.790119	504.211191	-192.753417	240.361960	305.702684	-184.536292	148.471135	367.293848	-131.118936	180.224470	358.327130	-236.868636	223.490006	982.587563	-491.823112	292.261350	929.719512	-494.802285	319.929248	950.337572	-482.450976	325.437136	847.238596	-499.967233	388.204414	766.296689	-483.909500	405.041141	736.368589	-382.936553	384.017900	659.383787	-506.698904	398.946868	575.225301	-492.408438	366.389927	490.401749	-491.321547	418.439286	576.611459	-456.240615	339.473074	384.774171	-476.832083	355.983465	382.767975	-398.533387	277.835435	331.450889	-440.142351	567.380393	310.837152	-441.096663	460.468205	293.562928	-504.243199	-125.393187	872.358555	-309.126499	37.604947	86.383290	-514.506124	33.513075	83.171262	-114.578514	
752	3.7600	626.149024	1275.306287	-174.714182	561.604555	1278.552855	-507.584597	580.724475	1313.501473	-345.447808	525.923364	1182.065011	-327.426203	610.969694	1015.066687	-67.370097	732.760460	843.630347	-116.092603	502.580439	991.269661	-536.923039	706.069697	877.930020	-506.904667	48.556268	1165.029912	-273.539348	175.945536	1153.324727	-426.006971	184.910464	1132.769477	-139.893731	217.027916	1114.359371	-403.677990	228.460988	1099.885033	-171.154264	75.061740	1189.888780	-228.440154	76.423624	1204.387166	-312.329055	151.977309	1049.335927	-106.181528	118.842974	1073.899882	-460.709240	237.550046	997.005617	-118.111406	314.013375	953.712297	-127.926323	363.906008	886.323759	-108.982060	333.747785	974.519020	-152.015215	427.810049	758.935718	-144.803031	404.629250	749.488073	-252.903475	360.427121	667.348156	-131.925403	303.915920	601.259328	-151.689754	225.834549	564.728765	-144.030166	311.367071	595.796213	-190.114916	121.174161	500.889588	-145.884208	142.764021	513.211905	-228.381137	34.996268	510.343166	-192.605796	241.385181	310.840492	-184.556885	149.911450	372.800339	-131.036785	181.997711	363.754819	-236.429413	223.871421	979.826623	-492.265141	292.023223	926.159940	-495.216175	319.925161	946.562933	-483.014261	324.267634	843.324167	-500.335886	386.135040	761.910917	-484.321195	401.788371	730.895700	-384.441245	382.044479	654.983836	-507.212038	397.533277	570.994438	-492.910343	365.364402	486.042853	-491.840049	416.972737	572.302961	-456.792955	339.108032	380.272928	-477.345826	355.676034	378.161668	-398.989238	277.331668	327.625245	-440.635101	566.712300	304.287488	-440.989489	459.804896	287.957523	-504.310973	-125.460634	872.332925	-309.169688	37.590705	86.364673	-514.504888	34.064195	82.867015	-114.460094	
753	3.7650	626.112426	1275.895992	-174.403022	562.420819	1278.705542	-507.939652	581.291483	1314.145634	-345.430799	525.867060	1182.856573	-327.382610	611.467504	1015.437407	-67.415803	732.928019	843.574166	-115.989693	502.722367	991.456790	-537.032762	706.117445	877.905714	-506.987175	49.346653	1163.931858	-274.627051	177.018813	1151.827434	-426.891155	185.323140	1132.833601	-140.591890	218.310926	1113.051283	-404.299475	229.109495	1100.024040	-171.612052	75.523948	1189.107619	-229.590180	77.248520	1203.121631	-313.572555	152.851678	1049.523018	-106.405164	119.950735	1072.039605	-461.114845	238.579948	997.996426	-117.952742	315.215750	955.545662	-127.760910	366.284113	888.963648	-107.870938	334.882957	976.420083	-151.744548	431.639221	762.091777	-143.413030	408.739230	751.978621	-251.077595	363.914231	670.808705	-130.780755	306.906644	605.112854	-150.851759	228.498746	569.456345	-143.364924	314.426500	599.712517	-189.106265	123.381798	506.444168	-145.621008	145.252398	518.683247	-228.064536	37.333101	516.316956	-192.400456	242.686517	315.824634	-184.508880	151.515387	378.225811	-130.945259	183.539363	369.051191	-236.295622	224.234039	977.126243	-492.779620	291.737570	922.672837	-495.705484	319.922599	942.705189	-483.527461	323.015469	839.462845	-500.770423	383.989501	757.523454	-484.698571	399.849667	727.038060	-385.018702	379.997784	650.745857	-507.586821	395.925923	566.629696	-493.285949	364.171752	481.597043	-492.322391	415.390700	568.244856	-457.283782	338.790458	375.735988	-477.774926	355.086660	373.649862	-399.542287	276.850198	323.789510	-441.112226	566.000182	297.730656	-440.759242	459.042560	282.366347	-504.336698	-125.449065	872.352125	-309.200231	37.589449	86.375731	-514.516921	34.072076	82.847557	-114.443766	
754	3.7700	625.972219	1276.721017	-173.676794	563.339029	1278.804815	-508.382743	581.882865	1314.831837	-345.361426	525.763123	1183.765824	-327.168908	612.057204	1015.815414	-67.513586	733.105744	843.602929	-115.870071	502.941203	991.628280	-537.237710	706.163902	877.876216	-507.116418	50.215252	1162.929365	-275.842778	178.172486	1150.366295	-427.863586	185.715659	1132.940437	-141.283738	219.686878	1111.774828	-405.004187	229.832295	1100.330164	-172.048312	76.019252	1188.420761	-230.807473	77.986865	1201.927273	-314.662443	153.636202	1049.877694	-106.691413	121.090948	1070.243145	-461.551980	239.593507	999.186843	-117.880569	316.779496	957.469576	-127.204850	368.650086	891.751865	-106.693968	336.351744	978.620170	-150.984920	435.436104	765.457527	-141.849016	413.722844	756.069224	-251.240650	367.369409	674.407645	-129.148554	309.870906	609.094443	-149.885150	231.054533	574.160611	-142.719332	317.486497	603.677394	-188.240794	125.702369	511.975336	-145.429578	147.956069	524.181403	-227.787515	39.828403	522.304267	-192.276005	244.118752	320.806873	-184.505727	153.214190	383.627765	-130.900735	185.026938	374.377391	-236.542596	224.557883	974.428271	-493.253338	291.474640	919.219430	-496.236839	319.860769	938.954104	-484.120973	321.727005	835.703522	-501.178607	381.786802	753.096122	-485.111760	397.649040	722.908726	-385.607645	377.846034	646.413075	-508.056289	394.170596	562.374249	-493.811372	362.801505	477.169986	-492.651809	413.651446	564.080442	-457.661263	338.433047	370.945309	-477.680082	354.640268	369.062266	-399.697246	276.048065	320.062171	-441.491301	565.007857	291.144461	-440.513205	458.034134	276.931974	-504.329394	-125.422092	872.338846	-309.141849	37.597044	86.362475	-514.515384	34.063735	82.857406	-114.448276	
755	3.7750	625.900400	1277.399481	-173.144869	564.369842	1278.977324	-508.566864	582.485720	1315.476633	-345.178838	525.959181	1184.479858	-327.009341	612.686968	1016.314228	-67.581741	733.255647	843.660611	-115.764138	503.277846	991.915342	-537.560113	706.225607	877.762462	-507.411743	51.150460	1161.949481	-277.086467	179.476565	1148.870519	-428.857604	186.115839	1133.153081	-142.036366	221.106796	1110.472285	-405.653291	230.535920	1100.694446	-172.531057	76.585625	1187.669540	-232.106183	78.827905	1200.762200	-315.934950	154.502970	1050.370814	-106.920828	122.442346	1068.365873	-462.200559	240.596033	1000.343262	-117.772874	318.334090	959.600976	-126.653591	370.970424	894.655814	-105.627293	337.811423	980.953719	-150.306653	439.270391	769.016323	-139.779020	418.075966	759.309185	-249.817981	370.831711	678.140814	-127.863889	312.926500	613.370053	-148.960266	233.770874	578.898791	-142.032382	320.587571	607.784858	-187.346887	128.175953	517.538547	-145.202052	150.579820	529.689165	-227.511725	42.347440	528.206802	-192.201667	245.754010	325.915033	-184.534839	155.209259	389.121796	-130.899533	187.232395	379.840477	-236.144203	224.861089	971.797116	-493.756651	291.144664	915.736008	-496.730832	319.762722	935.139650	-484.735601	320.417201	831.880982	-501.598982	379.495647	748.714055	-485.480449	395.368517	718.523311	-386.250056	375.496433	642.065517	-508.476683	392.284729	558.213742	-494.374874	361.255524	472.698583	-493.026196	411.738927	560.055338	-458.310010	337.727304	366.450950	-477.951631	353.717687	364.802128	-400.097075	275.210658	316.381672	-441.686402	563.797659	284.549220	-440.476972	456.768570	271.304334	-504.328446	-125.492590	872.337590	-309.177692	37.602460	86.346843	-514.513676	34.034526	82.770258	-114.430958	
